<svg width="210" height="39" viewBox="0 0 210 39" fill="none" xmlns="http://www.w3.org/2000/svg">
<path d="M9.04998 37.5L-2.43187e-05 2.5H5.49998L14.05 37.5H9.04998ZM16.3 37.5H11.25L19.8 2.5H25.35L16.3 37.5ZM29.7 37.5L20.65 2.5H26.2L34.75 37.5H29.7ZM37 37.5H31.95L40.5 2.5H46.05L37 37.5ZM51.9937 25.3V20.8H70.3437L68.1437 22.35C68.2104 20.75 67.9604 19.3 67.3937 18C66.8604 16.6667 66.0271 15.6 64.8937 14.8C63.7604 14 62.3271 13.6 60.5937 13.6C58.1604 13.6 56.1437 14.35 54.5437 15.85C52.9771 17.3167 52.1271 19.3667 51.9937 22H46.3437C46.5771 19.2333 47.3271 16.8667 48.5937 14.9C49.8937 12.9 51.5771 11.3667 53.6437 10.3C55.7104 9.23333 58.0271 8.7 60.5937 8.7C62.4937 8.7 64.2771 9.06667 65.9437 9.8C67.6104 10.5333 69.0437 11.6167 70.2437 13.05C71.4437 14.4833 72.3271 16.2333 72.8937 18.3C73.4937 20.3333 73.6604 22.6667 73.3937 25.3H51.9937ZM60.5937 38.3C57.9271 38.3 55.5604 37.75 53.4937 36.65C51.4604 35.55 49.8271 34.0333 48.5937 32.1C47.3604 30.1333 46.6271 27.8667 46.3937 25.3H51.9937C52.2604 27.7 53.0937 29.65 54.4937 31.15C55.9271 32.65 57.9604 33.4 60.5937 33.4C62.5604 33.4 64.1104 32.95 65.2437 32.05C66.4104 31.1167 67.2271 29.9833 67.6937 28.65H73.3937C72.9271 30.5833 72.1271 32.2667 70.9937 33.7C69.8604 35.1333 68.4104 36.2667 66.6437 37.1C64.8771 37.9 62.8604 38.3 60.5937 38.3ZM77.4742 -2.98023e-06H82.8242V37.5H77.4742V-2.98023e-06ZM87.9234 -2.98023e-06H93.2734V37.5H87.9234V-2.98023e-06Z" fill="#454E17"/>
<path d="M109.969 38.3C107.402 38.3 105.169 37.6833 103.269 36.45C101.402 35.1833 99.9524 33.4333 98.9191 31.2C97.8858 28.9667 97.3691 26.4167 97.3691 23.55C97.3691 20.65 97.8858 18.0833 98.9191 15.85C99.9524 13.6167 101.402 11.8667 103.269 10.6C105.169 9.33333 107.402 8.7 109.969 8.7C112.102 8.7 113.919 9.15 115.419 10.05C116.919 10.95 118.102 12.2 118.969 13.8V33.25C118.136 34.7833 116.986 36.0167 115.519 36.95C114.052 37.85 112.202 38.3 109.969 38.3ZM110.669 33.4C112.536 33.4 114.069 32.9833 115.269 32.15C116.502 31.2833 117.419 30.1 118.019 28.6C118.652 27.1 118.969 25.4167 118.969 23.55C118.969 21.65 118.652 19.95 118.019 18.45C117.419 16.95 116.502 15.7667 115.269 14.9C114.069 14.0333 112.536 13.6 110.669 13.6C109.069 13.6 107.686 14.0167 106.519 14.85C105.352 15.65 104.452 16.8 103.819 18.3C103.186 19.8 102.869 21.55 102.869 23.55C102.869 25.5167 103.186 27.25 103.819 28.75C104.452 30.2167 105.352 31.3667 106.519 32.2C107.686 33 109.069 33.4 110.669 33.4ZM118.969 37.5V-2.98023e-06H124.319V37.5H118.969ZM133.878 25.3V20.8H152.228L150.028 22.35C150.095 20.75 149.845 19.3 149.278 18C148.745 16.6667 147.912 15.6 146.778 14.8C145.645 14 144.212 13.6 142.478 13.6C140.045 13.6 138.028 14.35 136.428 15.85C134.862 17.3167 134.012 19.3667 133.878 22H128.228C128.462 19.2333 129.212 16.8667 130.478 14.9C131.778 12.9 133.462 11.3667 135.528 10.3C137.595 9.23333 139.912 8.7 142.478 8.7C144.378 8.7 146.162 9.06667 147.828 9.8C149.495 10.5333 150.928 11.6167 152.128 13.05C153.328 14.4833 154.212 16.2333 154.778 18.3C155.378 20.3333 155.545 22.6667 155.278 25.3H133.878ZM142.478 38.3C139.812 38.3 137.445 37.75 135.378 36.65C133.345 35.55 131.712 34.0333 130.478 32.1C129.245 30.1333 128.512 27.8667 128.278 25.3H133.878C134.145 27.7 134.978 29.65 136.378 31.15C137.812 32.65 139.845 33.4 142.478 33.4C144.445 33.4 145.995 32.95 147.128 32.05C148.295 31.1167 149.112 29.9833 149.578 28.65H155.278C154.812 30.5833 154.012 32.2667 152.878 33.7C151.745 35.1333 150.295 36.2667 148.528 37.1C146.762 37.9 144.745 38.3 142.478 38.3ZM164.046 28.65C164.213 30.35 164.929 31.6167 166.196 32.45C167.496 33.2833 169.046 33.7 170.846 33.7C172.646 33.7 174.079 33.3667 175.146 32.7C176.246 32.0333 176.796 30.9833 176.796 29.55C176.796 28.6833 176.463 28.0333 175.796 27.6C175.163 27.1333 174.313 26.7667 173.246 26.5C172.213 26.2333 171.063 26 169.796 25.8C168.563 25.6 167.313 25.35 166.046 25.05C164.779 24.75 163.613 24.3167 162.546 23.75C161.513 23.15 160.679 22.35 160.046 21.35C159.413 20.35 159.096 19.05 159.096 17.45C159.096 15.95 159.563 14.5333 160.496 13.2C161.429 11.8333 162.746 10.75 164.446 9.95C166.179 9.11667 168.179 8.7 170.446 8.7C172.479 8.7 174.346 9.11667 176.046 9.95C177.746 10.75 179.096 11.8667 180.096 13.3C181.129 14.7333 181.646 16.4 181.646 18.3H176.546C176.413 16.6 175.746 15.35 174.546 14.55C173.379 13.7167 171.946 13.3 170.246 13.3C168.313 13.3 166.846 13.7 165.846 14.5C164.879 15.2667 164.396 16.25 164.396 17.45C164.396 18.3833 164.713 19.1 165.346 19.6C166.013 20.1 166.863 20.4833 167.896 20.75C168.963 21.0167 170.129 21.25 171.396 21.45C172.663 21.65 173.913 21.9 175.146 22.2C176.413 22.5 177.563 22.9333 178.596 23.5C179.663 24.0333 180.513 24.7833 181.146 25.75C181.779 26.7167 182.096 27.9833 182.096 29.55C182.096 31.3167 181.629 32.8667 180.696 34.2C179.763 35.5 178.429 36.5167 176.696 37.25C174.996 37.95 172.963 38.3 170.596 38.3C168.396 38.3 166.413 37.8833 164.646 37.05C162.879 36.1833 161.463 35.0333 160.396 33.6C159.363 32.1333 158.813 30.4833 158.746 28.65H164.046ZM186.41 -2.98023e-06H191.76V37.5H186.41V-2.98023e-06ZM193.61 21.15L198.81 20.2L209.41 37.5H203.31L193.61 21.15ZM208.26 9.5L190.31 31.2L188.76 25.25L201.81 9.5H208.26Z" fill="#A3B73A"/>
</svg>
